<?xml version="1.0" encoding="UTF-8"?>
<svg id="Layer_1" xmlns="http://www.w3.org/2000/svg" version="1.1" viewBox="0 0 36 36">
  <!-- Generator: Adobe Illustrator 30.4.0, SVG Export Plug-In . SVG Version: 2.1.4 Build 226)  -->
  <defs>
    <style>
      .st0 {
        fill: #fff;
      }
    </style>
  </defs>
  <path class="st0" d="M9.07,33.93l-2.46.42-4.17.76-1.11.09c-.34.03-.56-.29-.53-.64.06-.78.19-1.52.34-2.31l.89-4.84c.09-.5.06-.92-.16-1.34-.37-.7-.63-1.4-.88-2.16C.23,21.65-.1,19.33.03,17.03.54,7.84,7.84.54,17.04.03c4.02-.22,8.06.94,11.39,3.3.81.57,1.52,1.18,2.18,1.83,6.97,6.83,7.22,18.01.54,25.14l-.82.83-1.3,1.11c-4.77,3.66-10.82,4.71-16.57,2.9-.94-.3-1.79-.64-2.67-1.06-.2-.1-.48-.18-.71-.15ZM5.83,30.91l3.4-.61c.39-.07.76-.06,1.12.11.77.37,1.48.78,2.29,1.08,2.16.82,4.32,1.16,6.57.97,7.07-.59,12.67-6.18,13.26-13.26.34-4.04-1.02-7.99-3.78-11.02l-.86-.86c-3.93-3.62-9.53-4.78-14.59-3.03-1.89.66-3.61,1.67-5.08,3.04-2.67,2.48-4.33,5.88-4.61,9.52-.23,3.04.46,5.87,1.92,8.51.27.49.33.91.24,1.45l-.53,2.92c-.05.3-.1.66-.02.94.07.26.43.27.68.22Z"/>
  <path class="st0" d="M22.64,20.18l1.33.61,2.23,1.2c.25.13.35.3.35.58-.02,1.21-.61,2.24-1.65,2.84-1.59.91-2.67.84-4.35.23-2.45-.89-4.66-2.3-6.5-4.15-.91-.92-1.67-1.88-2.39-2.94-1.17-1.72-2.02-3.79-1.47-5.85.25-.93.75-1.75,1.52-2.32.43-.32.96-.36,1.48-.41.33-.03.69.03.87.33.23.37.39.77.54,1.19l1,2.73c.07.19-.14.56-.24.71-.66.98-1.52,1.26-1.14,1.98.63,1.19,1.44,2.21,2.43,3.12s2.07,1.61,3.3,2.14c.16.07.44.04.56-.08l1.01-1.06.71-.78c.07-.07.32-.13.42-.08Z"/>
</svg>